<svg xmlns="http://www.w3.org/2000/svg" viewBox="0 0 100 100" width="100" height="100">
<path d="M43.9,15.5 L56.1,15.5 L56.2,24.2 L63.8,27.4 L70.1,21.3 L78.7,29.9 L72.6,36.2 L75.8,43.8 L84.5,43.9 L84.5,56.1 L75.8,56.2 L72.6,63.8 L78.7,70.1 L70.1,78.7 L63.8,72.6 L56.2,75.8 L56.1,84.5 L43.9,84.5 L43.8,75.8 L36.2,72.6 L29.9,78.7 L21.3,70.1 L27.4,63.8 L24.2,56.2 L15.5,56.1 L15.5,43.9 L24.2,43.8 L27.4,36.2 L21.3,29.9 L29.9,21.3 L36.2,27.4 L43.8,24.2 Z" fill="none" stroke="currentColor" stroke-width="8" stroke-linejoin="round"/>
<circle cx="50" cy="50" r="12" fill="none" stroke="currentColor" stroke-width="8"/>
<circle cx="50" cy="50" r="5" fill="currentColor"/>
</svg>
